solid OpenSCAD_Model
  facet normal -0.0430653 -0.155403 -0.986912
    outer loop
      vertex 5 0.5196 0.3
      vertex 5.5 0 0.36
      vertex 0 0 0.6
    endloop
  endfacet
  facet normal 0.0257252 0.302558 0.952784
    outer loop
      vertex 5 0.5196 0.3
      vertex 0 0.866 0.325
      vertex 0 0 0.6
    endloop
  endfacet
  facet normal 0.0691143 0.997609 0
    outer loop
      vertex 5 0.5196 0.3
      vertex 0 0.866 -0.325
      vertex 0 0.866 0.325
    endloop
  endfacet
  facet normal -0.0691143 -0.997609 0
    outer loop
      vertex 5 0.5196 -0.3
      vertex 5 0.5196 0.3
      vertex 0 0.866 -0.325
    endloop
  endfacet
  facet normal -0.0129394 0.240933 -0.970456
    outer loop
      vertex 4.5 0 -0.6
      vertex 0 0 -0.54
      vertex 0 0.866 -0.325
    endloop
  endfacet
  facet normal -0.0371454 -0.472618 0.880484
    outer loop
      vertex 4.5 0 -0.6
      vertex 5 0.5196 -0.3
      vertex 0 0.866 -0.325
    endloop
  endfacet
  facet normal -0.0129394 -0.240933 -0.970456
    outer loop
      vertex 4.5 0 -0.6
      vertex 0 -0.866 -0.325
      vertex 0 0 -0.54
    endloop
  endfacet
  facet normal -0.0371454 0.472618 0.880484
    outer loop
      vertex 5 -0.5196 -0.3
      vertex 4.5 0 -0.6
      vertex 0 -0.866 -0.325
    endloop
  endfacet
  facet normal 0.0691143 -0.997609 0
    outer loop
      vertex 5 -0.5196 -0.3
      vertex 0 -0.866 0.325
      vertex 0 -0.866 -0.325
    endloop
  endfacet
  facet normal -0.0691143 0.997609 0
    outer loop
      vertex 5 -0.5196 0.3
      vertex 5 -0.5196 -0.3
      vertex 0 -0.866 0.325
    endloop
  endfacet
  facet normal 0.0257252 -0.302558 0.952784
    outer loop
      vertex 5 -0.5196 0.3
      vertex 0 0 0.6
      vertex 0 -0.866 0.325
    endloop
  endfacet
  facet normal -0.0430653 0.155403 -0.986912
    outer loop
      vertex 5.5 0 0.36
      vertex 5 -0.5196 0.3
      vertex 0 0 0.6
    endloop
  endfacet
  facet normal 0.488568 0.548495 0.678567
    outer loop
      vertex 6 0 0
      vertex 5 0.5196 0.3
      vertex 5.5 0 0.36
    endloop
  endfacet
  facet normal 0.461073 0.887362 0
    outer loop
      vertex 6 0 0
      vertex 5 0.5196 -0.3
      vertex 5 0.5196 0.3
    endloop
  endfacet
  facet normal 0.3656 0.175904 -0.913999
    outer loop
      vertex 6 0 0
      vertex 4.5 0 -0.6
      vertex 5 0.5196 -0.3
    endloop
  endfacet
  facet normal 0.3656 -0.175904 -0.913999
    outer loop
      vertex 6 0 0
      vertex 5 -0.5196 -0.3
      vertex 4.5 0 -0.6
    endloop
  endfacet
  facet normal 0.461073 -0.887362 0
    outer loop
      vertex 6 0 0
      vertex 5 -0.5196 0.3
      vertex 5 -0.5196 -0.3
    endloop
  endfacet
  facet normal 0.488568 -0.548495 0.678567
    outer loop
      vertex 6 0 0
      vertex 5.5 0 0.36
      vertex 5 -0.5196 0.3
    endloop
  endfacet
  facet normal -1 0 0
    outer loop
      vertex 0 0.866 -0.325
      vertex 0 0.866 0.325
      vertex 0 4 0
    endloop
  endfacet
  facet normal -0.0913043 -0.102717 -0.990511
    outer loop
      vertex 4.5 0 0
      vertex 0 0.866 0.325
      vertex 0 4 0
    endloop
  endfacet
  facet normal 0.0913043 0.102717 -0.990511
    outer loop
      vertex 4.5 0 0
      vertex 0 0.866 -0.325
      vertex 0 4 0
    endloop
  endfacet
  facet normal -1 0 -0
    outer loop
      vertex 0 -0.866 0.325
      vertex 0 -0.866 -0.325
      vertex 0 -4 0
    endloop
  endfacet
  facet normal -0.0913043 0.102717 0.990511
    outer loop
      vertex 4.5 0 0
      vertex 0 -0.866 -0.325
      vertex 0 -4 0
    endloop
  endfacet
  facet normal 0.0913043 -0.102717 0.990511
    outer loop
      vertex 4.5 0 0
      vertex 0 -0.866 0.325
      vertex 0 -4 0
    endloop
  endfacet
  facet normal 0.347081 -0.283844 -0.89385
    outer loop
      vertex -0.6 0.4 0.24
      vertex 0 0.866 0.325
      vertex 0 0 0.6
    endloop
  endfacet
  facet normal 0.613394 -0.789777 2.40116e-17
    outer loop
      vertex -0.6 0.4 0.24
      vertex 0 0.866 -0.325
      vertex 0 0.866 0.325
    endloop
  endfacet
  facet normal 0.740263 -0.161997 0.652509
    outer loop
      vertex -0.6 0.4 0.24
      vertex 0 0 -0.54
      vertex 0 0.866 -0.325
    endloop
  endfacet
  facet normal 0.740263 0.161997 0.652509
    outer loop
      vertex -0.6 -0.4 0.24
      vertex 0 -0.866 -0.325
      vertex 0 0 -0.54
    endloop
  endfacet
  facet normal 0.613394 0.789777 -2.40116e-17
    outer loop
      vertex -0.6 -0.4 0.24
      vertex 0 -0.866 0.325
      vertex 0 -0.866 -0.325
    endloop
  endfacet
  facet normal 0.347081 0.283844 -0.89385
    outer loop
      vertex -0.6 -0.4 0.24
      vertex 0 0 0.6
      vertex 0 -0.866 0.325
    endloop
  endfacet
  facet normal -0.171291 -0.943811 -0.28263
    outer loop
      vertex -0.6 0.4 0.24
      vertex 2 0 0
      vertex -1.3 0 2
    endloop
  endfacet
  facet normal 0.171291 -0.943811 0.28263
    outer loop
      vertex -0.6 -0.4 0.24
      vertex 2 0 0
      vertex -1.3 0 2
    endloop
  endfacet
  facet normal 0.929203 -0 0.369569
    outer loop
      vertex -0.6 -0.4 0.24
      vertex -0.6 0.4 0.24
      vertex -1.3 0 2
    endloop
  endfacet
  facet normal -0.792624 0 -0.609711
    outer loop
      vertex -0.6 -0.4 0.24
      vertex -0.6 0.4 0.24
      vertex 0 0 -0.54
    endloop
  endfacet
endsolid OpenSCAD_Model
